<?xml version="1.0" encoding="UTF-8" standalone="no"?>
<svg
   xmlns:dc="http://purl.org/dc/elements/1.1/"
   xmlns:cc="http://creativecommons.org/ns#"
   xmlns:rdf="http://www.w3.org/1999/02/22-rdf-syntax-ns#"
   xmlns:svg="http://www.w3.org/2000/svg"
   xmlns="http://www.w3.org/2000/svg"
   viewBox="0 0 338.53333 272.89334"
   height="272.89334"
   width="338.53333"
   xml:space="preserve"
   id="svg2"
   version="1.1"><metadata
     id="metadata8"><rdf:RDF><cc:Work
         rdf:about=""><dc:format>image/svg+xml</dc:format><dc:type
           rdf:resource="http://purl.org/dc/dcmitype/StillImage" /></cc:Work></rdf:RDF></metadata><defs
     id="defs6" /><g
     transform="matrix(1.3333333,0,0,-1.3333333,0,272.89333)"
     id="g10"><g
       transform="scale(0.1)"
       id="g12"><path
         id="path14"
         style="fill:#040606;fill-opacity:1;fill-rule:nonzero;stroke:none"
         d="M 1876.41,721.449 H 662.625 c -365.957,0 -662.62890625,296.671 -662.62890625,662.631 v 0.01 c 0,365.96 296.67190625,662.62 662.62890625,662.62 H 1876.41 c 365.97,0 662.63,-296.66 662.63,-662.62 v -0.01 c 0,-365.96 -296.66,-662.631 -662.63,-662.631" /><path
         id="path16"
         style="fill:#8dc5ec;fill-opacity:1;fill-rule:nonzero;stroke:none"
         d="M 1864.03,786.48 H 675.012 c -330.047,0 -597.6018,267.56 -597.6018,597.6 v 0.01 c 0,330.04 267.5548,597.6 597.6018,597.6 H 1864.03 c 330.04,0 597.6,-267.56 597.6,-597.6 v -0.01 c 0,-330.04 -267.56,-597.6 -597.6,-597.6" /><path
         id="path18"
         style="fill:#6394c1;fill-opacity:1;fill-rule:nonzero;stroke:none"
         d="M 1864.03,786.48 H 972.27 c -330.051,0 -597.606,267.56 -597.606,597.6 v 0.01 c 0,330.04 267.555,597.6 597.606,597.6 h 891.76 c 330.04,0 597.6,-267.56 597.6,-597.6 v -0.01 c 0,-330.04 -267.56,-597.6 -597.6,-597.6" /><path
         id="path20"
         style="fill:#040606;fill-opacity:1;fill-rule:nonzero;stroke:none"
         d="m 1269.52,222.941 c -289.004,0 -523.293,234.278 -523.293,523.289 0,289 234.289,523.29 523.293,523.29 289.01,0 523.29,-234.29 523.29,-523.29 0,-289.011 -234.28,-523.289 -523.29,-523.289 z m 0,1269.519 c -412.129,0 -746.231,-334.1 -746.231,-746.23 C 523.289,334.102 857.391,0 1269.52,0 c 412.13,0 746.23,334.102 746.23,746.23 0,412.13 -334.1,746.23 -746.23,746.23" /><path
         id="path22"
         style="fill:#fab526;fill-opacity:1;fill-rule:nonzero;stroke:none"
         d="m 1266.42,142.43 c -335.17,0 -606.893,271.718 -606.893,606.89 0,335.18 271.723,606.9 606.893,606.9 335.18,0 606.89,-271.72 606.89,-606.9 0,-335.172 -271.71,-606.89 -606.89,-606.89 z m 0,1281.9 c -372.795,0 -675.01,-302.2 -675.01,-675.01 0,-372.8 302.215,-675.0114 675.01,-675.0114 372.8,0 675.02,302.2114 675.02,675.0114 0,372.81 -302.22,675.01 -675.02,675.01" /><path
         id="path24"
         style="fill:#040606;fill-opacity:1;fill-rule:nonzero;stroke:none"
         d="m 1600.83,1380.98 c 0,181.27 -146.94,328.23 -328.22,328.23 -181.26,0 -328.212,-146.96 -328.212,-328.23 0,-181.27 146.952,-328.21 328.212,-328.21 181.28,0 328.22,146.94 328.22,328.21" /><path
         id="path26"
         style="fill:#52c4a9;fill-opacity:1;fill-rule:nonzero;stroke:none"
         d="m 1526.52,1387.18 c 0,140.23 -113.68,253.9 -253.91,253.9 -140.22,0 -253.9,-113.67 -253.9,-253.9 0,-140.23 113.68,-253.9 253.9,-253.9 140.23,0 253.91,113.67 253.91,253.9" /><path
         id="path28"
         style="fill:#318d7a;fill-opacity:1;fill-rule:nonzero;stroke:none"
         d="m 1433.63,1387.18 c 0,88.92 -72.08,161.01 -161.02,161.01 -88.92,0 -161.01,-72.09 -161.01,-161.01 0,-88.92 72.09,-161.01 161.01,-161.01 88.94,0 161.02,72.09 161.02,161.01" /><path
         id="path30"
         style="fill:#ffffff;fill-opacity:1;fill-rule:nonzero;stroke:none"
         d="m 1172.38,1435.89 c 8.8,18.05 22.31,33.38 38.97,44.36 l -41.17,65.87 c -27.63,-16.77 -50.48,-40.57 -66.21,-68.87 18.56,-11.48 45.08,-27.42 68.41,-41.36" /><path
         id="path32"
         style="fill:#ffffff;fill-opacity:1;fill-rule:nonzero;stroke:none"
         d="m 1272.61,1572.81 v -74.16 c 61.57,0 111.47,-49.9 111.47,-111.47 0,-61.57 -49.9,-111.47 -111.47,-111.47 v -74.16 c 99.74,3.28 179.6,85.1 179.6,185.63 0,100.53 -79.86,182.35 -179.6,185.63" /><path
         id="path34"
         style="fill:#ffffff;fill-opacity:1;fill-rule:nonzero;stroke:none"
         d="m 444.215,1530.54 h -77.742 v 77.75 h 77.742 v -77.75" /><path
         id="path36"
         style="fill:#ffffff;fill-opacity:1;fill-rule:nonzero;stroke:none"
         d="m 444.215,1243.48 h -77.742 v 77.75 h 77.742 v -77.75" /><path
         id="path38"
         style="fill:#ffffff;fill-opacity:1;fill-rule:nonzero;stroke:none"
         d="m 300.688,1464.75 v -77.74 h -77.747 v 77.74 h 77.747" /><path
         id="path40"
         style="fill:#ffffff;fill-opacity:1;fill-rule:nonzero;stroke:none"
         d="m 587.746,1464.75 v -77.74 h -77.742 v 77.74 h 77.742" /><path
         id="path42"
         style="fill:#ffffff;fill-opacity:1;fill-rule:nonzero;stroke:none"
         d="m 444.215,1387.01 h -77.742 v 77.74 h 77.742 v -77.74" /><path
         id="path44"
         style="fill:#ffffff;fill-opacity:1;fill-rule:nonzero;stroke:none"
         d="m 2172.57,1530.54 h -77.74 v 77.75 h 77.74 v -77.75" /><path
         id="path46"
         style="fill:#ffffff;fill-opacity:1;fill-rule:nonzero;stroke:none"
         d="m 2172.57,1243.48 h -77.74 v 77.75 h 77.74 v -77.75" /><path
         id="path48"
         style="fill:#ffffff;fill-opacity:1;fill-rule:nonzero;stroke:none"
         d="m 2029.04,1464.75 v -77.74 h -77.75 v 77.74 h 77.75" /><path
         id="path50"
         style="fill:#ffffff;fill-opacity:1;fill-rule:nonzero;stroke:none"
         d="m 2316.1,1464.75 v -77.74 h -77.75 v 77.74 h 77.75" /><path
         id="path52"
         style="fill:#ffffff;fill-opacity:1;fill-rule:nonzero;stroke:none"
         d="m 2172.57,1387.01 h -77.74 v 77.74 h 77.74 v -77.74" /></g></g></svg>