<?xml version="1.0" encoding="UTF-8" standalone="no"?>
<svg
   xmlns:dc="http://purl.org/dc/elements/1.1/"
   xmlns:cc="http://creativecommons.org/ns#"
   xmlns:rdf="http://www.w3.org/1999/02/22-rdf-syntax-ns#"
   xmlns:svg="http://www.w3.org/2000/svg"
   xmlns="http://www.w3.org/2000/svg"
   viewBox="0 0 674.30664 145.01334"
   height="145.01334"
   width="674.30664"
   xml:space="preserve"
   id="svg2"
   version="1.1"><metadata
     id="metadata8"><rdf:RDF><cc:Work
         rdf:about=""><dc:format>image/svg+xml</dc:format><dc:type
           rdf:resource="http://purl.org/dc/dcmitype/StillImage" /></cc:Work></rdf:RDF></metadata><defs
     id="defs6" /><g
     transform="matrix(1.3333333,0,0,-1.3333333,0,145.01333)"
     id="g10"><g
       transform="scale(0.1)"
       id="g12"><path
         id="path14"
         style="fill:#346490;fill-opacity:1;fill-rule:nonzero;stroke:none"
         d="m 2206.55,0 c -9.49,0 -19.15,2.39844 -27.99,7.53125 -26.67,15.48825 -35.78,49.68755 -20.29,76.36715 124.93,215.2186 252.42,321.9216 389.74,326.2346 129.34,2.289 252.8,-83.52 375.44,-267.422 17.13,-25.699 10.19,-60.3399 -15.5,-77.461 -25.74,-17.0312 -60.44,-10.1602 -77.46,15.4883 -96.35,144.5117 -188.65,217.7777 -274.36,217.7777 -1.58,0 -3.1,-0.051 -4.69,-0.051 -94.27,-2.949 -193.99,-94 -296.5,-270.6447 C 2244.57,9.98047 2225.81,0 2206.55,0" /><path
         id="path16"
         style="fill:#346490;fill-opacity:1;fill-rule:nonzero;stroke:none"
         d="m 83.8633,642.422 c -27.7149,0 -54.832,13.75 -70.8125,38.898 -24.7696,39.063 -13.257831,90.832 25.8594,115.653 467.3628,296.887 875.7498,314.117 1213.5998,51.226 36.56,-28.422 43.1,-81.062 14.68,-117.562 -28.42,-36.496 -81.12,-43.043 -117.57,-14.672 C 869.711,933.688 535.785,913.988 128.703,655.461 114.793,646.621 99.2461,642.422 83.8633,642.422" /><path
         id="path18"
         style="fill:#346490;fill-opacity:1;fill-rule:nonzero;stroke:none"
         d="m 4973.58,631.621 c -24.27,0 -48.34,10.477 -64.92,30.715 -224.66,274.461 -554.43,329.285 -1008.87,167.531 -43.58,-15.652 -91.48,7.203 -107.03,50.848 -15.54,43.59 7.26,91.543 50.84,107.035 521.7,185.76 923.61,111.95 1194.79,-219.254 29.29,-35.785 24,-88.594 -11.78,-117.941 -15.56,-12.711 -34.37,-18.934 -53.03,-18.934" /></g></g></svg>