<?xml version="1.0" encoding="UTF-8" standalone="no"?>
<svg
   xmlns:dc="http://purl.org/dc/elements/1.1/"
   xmlns:cc="http://creativecommons.org/ns#"
   xmlns:rdf="http://www.w3.org/1999/02/22-rdf-syntax-ns#"
   xmlns:svg="http://www.w3.org/2000/svg"
   xmlns="http://www.w3.org/2000/svg"
   viewBox="0 0 339.13333 51.200001"
   height="51.200001"
   width="339.13333"
   xml:space="preserve"
   id="svg2"
   version="1.1"><metadata
     id="metadata8"><rdf:RDF><cc:Work
         rdf:about=""><dc:format>image/svg+xml</dc:format><dc:type
           rdf:resource="http://purl.org/dc/dcmitype/StillImage" /></cc:Work></rdf:RDF></metadata><defs
     id="defs6" /><g
     transform="matrix(1.3333333,0,0,-1.3333333,0,51.2)"
     id="g10"><g
       transform="scale(0.1)"
       id="g12"><path
         id="path14"
         style="fill:#9dc5e9;fill-opacity:1;fill-rule:nonzero;stroke:none"
         d="m 325.168,9.23047 c -4.93,0 -11.961,1.31643 -21.102,3.95313 -9.14,2.6367 -17.406,10.0234 -24.789,22.1523 -4.574,7.2071 -6.855,15.5625 -6.855,25.0547 0,6.1524 0.961,12.7461 2.898,19.7813 10.371,37.6211 15.563,76.8241 15.563,117.6171 0,26.547 -1.317,49.977 -3.953,70.281 -2.645,20.309 -4.227,31.075 -4.75,32.305 -7.215,-2.285 -14.551,-9.887 -22.024,-22.812 -7.468,-12.918 -13.672,-26.68 -18.59,-41.27 -4.398,-13.363 -6.589,-23.734 -6.589,-31.117 v -2.379 c 1.402,-15.82 2.41,-28.481 3.031,-37.973 0.609,-9.492 0.922,-16.793 0.922,-21.89 -0.18,-6.856 -1.235,-12.918 -3.164,-18.196 -1.411,-2.992 -2.551,-8.086 -3.43,-15.293 -2.109,-15.3005 -8.527,-26.0231 -19.25,-32.1755 -6.859,-3.8711 -13.891,-5.8047 -21.098,-5.8047 -4.218,0 -10.422,1.1875 -18.593,3.5665 -8.176,2.371 -15.079,10.2382 -20.704,23.5976 -2.109,5.4491 -4.57,10.6411 -7.382,15.5621 -4.746,8.965 -8.043,18.856 -9.887,29.668 -1.848,10.813 -3.297,22.454 -4.352,34.946 -1.054,16.347 -3.39,33.972 -6.992,52.875 -3.605,18.898 -10.68,38.984 -21.23,60.258 -18.1058,-16.528 -27.1644,-48.965 -27.1644,-97.313 0,-20.922 1.1445,-45.977 3.4336,-75.16 1.9258,-23.0353 2.8984,-41.2306 2.8984,-54.5939 0,-12.125 -1.1484,-21.5352 -3.4258,-28.2148 C 74.0156,25.9297 66.2813,20.5664 55.3828,20.5664 45.1797,20.5664 36.2969,27.4258 28.7461,41.1367 9.58203,81.9258 0,130.449 0,186.715 c 0,12.832 1.05469,30.723 3.16406,53.668 2.10938,22.941 8.57034,47.551 19.37894,73.84 10.8164,26.281 25.7148,45.754 44.7031,58.414 11.4258,7.558 24.3516,11.34 38.7699,11.34 9.664,0 19.953,-1.672 30.855,-5.012 18.281,-6.156 32.567,-13.758 42.852,-22.813 10.289,-9.058 17.933,-18.109 22.941,-27.164 5.012,-9.054 8.484,-16.742 10.422,-23.074 1.754,-5.098 3.336,-8.266 4.746,-9.492 0.699,0.699 1.934,2.898 3.691,6.59 25.668,49.758 54.239,74.636 85.707,74.636 30.946,0 55.645,-23.21 74.11,-69.625 11.953,-30.589 17.933,-67.867 17.933,-111.816 0,-42.551 -7.21,-90.109 -21.628,-142.6718 C 368.152,24 350.652,9.23047 325.168,9.23047" /><path
         id="path16"
         style="fill:#9dc5e9;fill-opacity:1;fill-rule:nonzero;stroke:none"
         d="m 592.578,0 c -7.738,0 -15.738,0.96875 -24,2.90234 -9.144,2.63282 -17.406,7.46876 -24.789,14.49996 -9.492,8.6133 -14.242,16.7032 -14.242,24.2618 0,5.2734 3.426,9.0547 10.289,11.3437 4.387,1.2266 8.699,2.7266 12.918,4.4844 6.68,2.6367 13.715,4.6562 21.098,6.0625 11.425,1.2305 21.496,6.1953 30.195,14.9023 8.707,8.7032 14.641,23.949 17.805,45.754 1.582,11.078 2.371,22.504 2.371,34.285 l -0.262,11.867 c -3.164,-6.328 -8.094,-14.683 -14.773,-25.054 -18.813,-29.36 -42.192,-45.977 -70.145,-49.8442 -2.465,-0.3515 -5.012,-0.5273 -7.652,-0.5273 -14.239,0 -29.887,5.3595 -46.938,16.0895 -17.933,12.481 -31.738,30.942 -41.406,55.379 -12.656,31.293 -18.988,65.407 -18.988,102.324 0,18.809 2.195,38.063 6.593,57.754 4.391,19.688 12.395,34.371 24,44.043 5.621,4.571 11.602,6.856 17.93,6.856 2.988,0 7.691,-1.098 14.113,-3.297 6.414,-2.199 13.051,-11.824 19.907,-28.875 5.625,-15.473 10.113,-42.461 13.453,-80.965 1.933,-20.57 4.394,-39.777 7.383,-57.621 2.988,-17.844 7.558,-31.34 13.714,-40.48 3.164,-3.868 6.856,-5.801 11.075,-5.801 3.515,0 8.527,2.195 15.035,6.59 6.5,4.394 14.324,13.007 23.468,25.843 9.137,12.832 16.79,25.801 22.946,38.903 6.152,13.09 9.398,23.246 9.758,30.461 0.351,36.566 4.656,64.519 12.918,83.859 7.558,17.754 16.441,26.637 26.636,26.637 0.879,0 4.356,-0.489 10.418,-1.449 6.067,-0.969 13.582,-14.465 22.551,-40.485 8.965,-26.019 14.414,-66.019 16.348,-119.988 v -9.235 c 0,-43.429 -6.02,-81.359 -18.063,-113.7925 C 682.195,55.25 665.188,31.3828 643.215,16.0859 627.738,5.36328 610.859,0 592.578,0" /><path
         id="path18"
         style="fill:#9dc5e9;fill-opacity:1;fill-rule:nonzero;stroke:none"
         d="m 923.281,102.063 c 3.516,0 6.77,0.609 9.762,1.843 8.613,3.164 12.918,9.137 12.918,17.93 0,0.352 -0.086,2.902 -0.262,7.652 -0.176,4.746 -7.215,12.086 -21.097,22.016 -13.887,9.934 -36.571,17.629 -68.039,23.074 -0.356,0.18 -0.836,0.309 -1.45,0.399 -0.621,0.086 -1.234,0.086 -1.847,0 -0.621,-0.09 -0.922,-1.539 -0.922,-4.352 0.347,-25.316 0.66,-38.328 0.922,-39.027 0.265,-0.707 1.886,-1.5 4.879,-2.375 4.394,-1.235 17.753,-7.825 40.082,-19.778 9.5,-4.929 17.847,-7.382 25.054,-7.382 z m -71.992,142.933 c 28.652,1.934 53.356,7.25 74.102,15.957 20.746,8.699 35.871,17.973 45.363,27.82 5.976,6.153 8.969,11.34 8.969,15.559 0,2.461 -1.055,4.656 -3.168,6.598 -3.52,2.453 -8,3.691 -13.45,3.691 -4.925,0 -12.484,-1.633 -22.679,-4.883 -10.199,-3.254 -22.637,-9.406 -37.317,-18.457 -14.679,-9.058 -26.992,-17.98 -36.921,-26.769 -9.934,-8.793 -14.899,-15.297 -14.899,-19.516 z M 925.652,9.23047 c -1.757,0 -6.765,0.30078 -15.027,0.92183 -8.266,0.6133 -18.023,3.6915 -29.273,9.2266 -11.254,5.543 -20.664,10.9492 -28.215,16.2227 -9.149,5.9765 -14.949,8.9648 -17.41,8.9648 -1.231,0 -2.286,-0.3516 -3.164,-1.0547 -12.309,-10.5469 -23.208,-15.8203 -32.7,-15.8203 -21.273,0 -36.394,23.207 -45.359,69.6172 -5.457,27.2544 -8.176,57.3164 -8.176,90.1954 0,2.809 0.082,14.019 0.266,33.625 0.168,19.605 3.164,44.965 8.965,76.082 10.371,55.207 27.25,82.809 50.632,82.809 1.934,0 6.329,-0.661 13.184,-1.977 6.859,-1.32 14.594,-14.465 23.207,-39.426 39.563,30.067 76.742,45.094 111.559,45.094 23.554,0 44.652,-6.551 63.289,-19.645 18.63,-13.097 31.21,-31.957 37.71,-56.57 1.06,-5.449 1.58,-10.641 1.58,-15.558 0,-11.958 -3.64,-24.043 -10.94,-36.262 -7.3,-12.223 -16.83,-23.074 -28.61,-32.571 -11.78,-9.492 -20.486,-15.82 -26.111,-18.988 l -2.899,-2.109 c 29.71,-26.02 46.85,-50.899 51.42,-74.629 1.06,-5.805 1.59,-11.52 1.59,-17.145 0,-16.8785 -5.85,-33.5387 -17.54,-49.9762 C 1011.93,43.8203 994.047,30.2344 969.961,19.5117 953.785,12.6563 939.016,9.23047 925.652,9.23047" /><path
         id="path20"
         style="fill:#9dc5e9;fill-opacity:1;fill-rule:nonzero;stroke:none"
         d="m 1159.58,92.5625 c 6.33,0 16.61,2.418 30.85,7.2539 14.24,4.8316 38.33,20.5276 72.26,47.0746 1.41,1.406 2.11,3.074 2.11,5.007 0,2.286 -1.58,5.582 -4.75,9.895 -3.16,4.305 -7.91,9.141 -14.23,14.5 -6.33,5.363 -11.43,9.273 -15.3,11.738 -8.97,5.449 -17.67,8.176 -26.11,8.176 -17.58,0 -33.67,-10.019 -48.26,-30.062 -12.66,-17.235 -18.99,-33.586 -18.99,-49.055 0,-8.266 2.46,-14.766 7.39,-19.5158 3.34,-3.3398 8.35,-5.0117 15.03,-5.0117 z m 151.65,-74.6328 h -1.59 c -11.79,0 -22.52,3.6055 -32.18,10.8164 -9.67,7.207 -16.08,17.5781 -19.24,31.1172 -0.72,3.6914 -1.06,7.2969 -1.06,10.8125 0,4.043 1.14,15.5586 3.42,34.5512 -1.41,-0.36 -3.79,-2.555 -7.11,-6.5981 -16.54,-20.7461 -40.71,-37.9726 -72.53,-51.6914 -12.49,-5.0977 -24.53,-7.6445 -36.13,-7.6445 -6.16,0 -14.9,1.4062 -26.24,4.2187 -11.34,2.8125 -22.37,13.6211 -33.1,32.4414 -6.86,13.5352 -10.28,27.7739 -10.28,42.7189 0,8.613 2.1,21.363 6.33,38.242 4.22,16.875 15.77,35.074 34.68,54.59 18.89,19.512 41.88,31.996 68.96,37.445 6.5,1.406 13.18,2.11 20.04,2.11 20.92,0 42.98,-6.418 66.2,-19.246 0.35,-0.18 0.96,-0.266 1.84,-0.266 l 0.27,10.019 c 0,24.262 -4.8,41.094 -14.37,50.504 -9.59,9.407 -22.21,14.106 -37.85,14.106 -16.18,0 -36.05,-2.723 -59.6,-8.172 -18.82,-4.219 -30.86,-6.328 -36.13,-6.328 -6.16,0 -10.73,1.844 -13.71,5.535 -1.94,2.285 -2.9,4.836 -2.9,7.648 0,10.551 11.33,21.891 34.01,34.024 16,8.437 34.9,14.5 56.7,18.191 8.62,1.406 17.23,2.11 25.85,2.11 13.18,0 28.74,-2.286 46.67,-6.856 17.93,-4.574 35.69,-16.746 53.28,-36.523 17.58,-19.778 30.24,-48.832 37.97,-87.16 3.87,-19.512 5.8,-41.93 5.8,-67.247 0,-24.968 -1.83,-52.656 -5.52,-83.0738 -3.01,-20.5703 -9.46,-35.6914 -19.4,-45.3594 -9.94,-9.6757 -20.96,-14.6835 -33.08,-15.0351" /><path
         id="path22"
         style="fill:#9dc5e9;fill-opacity:1;fill-rule:nonzero;stroke:none"
         d="m 1616.87,74.6328 c 2.99,0 7.87,0.3985 14.64,1.1875 6.77,0.793 13.32,5.2305 19.65,13.3164 4.74,5.9766 7.12,14.4143 7.12,25.3163 0,3.516 -0.27,7.207 -0.79,11.074 -6.68,44.133 -25.15,66.196 -55.39,66.196 -2.46,0 -7.95,-0.571 -16.48,-1.711 -8.53,-1.149 -19.47,-5.539 -32.83,-13.192 -13.36,-7.644 -23.91,-15.16 -31.64,-22.543 -5.99,-5.804 -8.98,-9.937 -8.98,-12.398 0,-0.703 0.27,-1.231 0.79,-1.582 10.2,-5.449 18.82,-13.098 25.85,-22.942 5.45,-7.031 12.27,-14.07 20.44,-21.1011 8.18,-7.0312 19.65,-13.0117 34.42,-17.9297 7.73,-2.4648 15.47,-3.6914 23.2,-3.6914 z M 1451.52,13.9766 c -11.6,0 -21.8,5.4492 -30.59,16.3515 -12.14,14.7657 -18.2,52.7422 -18.2,113.9259 0,38.504 3.78,86.148 11.35,142.937 4.22,31.122 11.25,52.567 21.09,64.348 6.5,7.734 13.18,11.606 20.04,11.606 3.34,0 8.4,-1.938 15.17,-5.805 6.76,-3.867 12.7,-16.442 17.8,-37.711 5.27,-25.145 7.91,-53.008 7.91,-83.598 l -0.26,-20.574 c 0,-8.793 0.17,-14.152 0.52,-16.086 0.18,0 0.35,0.176 0.53,0.527 1.93,2.286 8.7,8.047 20.31,17.274 11.6,9.23 26.46,17.976 44.56,26.242 16.18,7.207 33.67,10.809 52.48,10.809 1.94,0 8.71,-0.219 20.32,-0.657 11.6,-0.441 27.86,-9.625 48.78,-27.558 18.64,-17.235 31.82,-37.184 39.56,-59.863 5.28,-15.653 7.92,-31.122 7.92,-46.418 0,-7.032 -1.2,-17.848 -3.57,-32.4379 -2.37,-14.5938 -11.03,-29.711 -25.98,-45.3594 -13,-12.4844 -31.65,-20.4844 -55.9,-24 -7.21,-1.0547 -14.6,-1.582 -22.15,-1.582 -51,0 -94.59,19.6914 -130.81,59.0781 l -1.58,-0.2656 c 0,-16.7071 -2.47,-29.8047 -7.39,-39.2969 -7.74,-14.5938 -18.38,-21.8867 -31.91,-21.8867" /><path
         id="path24"
         style="fill:#9dc5e9;fill-opacity:1;fill-rule:nonzero;stroke:none"
         d="m 1915.13,0 c -7.73,0 -15.73,0.96875 -23.99,2.90234 -9.14,2.63282 -17.4,7.46876 -24.8,14.49996 -9.49,8.6133 -14.24,16.7032 -14.24,24.2618 0,5.2734 3.43,9.0547 10.29,11.3437 4.39,1.2266 8.71,2.7266 12.93,4.4844 6.68,2.6367 13.71,4.6562 21.09,6.0625 11.43,1.2305 21.5,6.1953 30.2,14.9023 8.7,8.7032 14.64,23.949 17.8,45.754 1.58,11.078 2.37,22.504 2.37,34.285 l -0.26,11.867 c -3.17,-6.328 -8.09,-14.683 -14.77,-25.054 -18.82,-29.36 -42.19,-45.977 -70.15,-49.8442 -2.46,-0.3515 -5.01,-0.5273 -7.65,-0.5273 -14.24,0 -29.89,5.3595 -46.94,16.0895 -17.93,12.481 -31.74,30.942 -41.4,55.379 -12.67,31.293 -18.99,65.407 -18.99,102.324 0,18.809 2.19,38.063 6.59,57.754 4.39,19.688 12.4,34.371 24,44.043 5.63,4.571 11.6,6.856 17.93,6.856 2.99,0 7.69,-1.098 14.11,-3.297 6.42,-2.199 13.06,-11.824 19.92,-28.875 5.62,-15.473 10.1,-42.461 13.44,-80.965 1.94,-20.57 4.4,-39.777 7.39,-57.621 2.98,-17.844 7.55,-31.34 13.71,-40.48 3.16,-3.868 6.86,-5.801 11.08,-5.801 3.52,0 8.53,2.195 15.03,6.59 6.5,4.394 14.33,13.007 23.47,25.843 9.14,12.832 16.78,25.801 22.95,38.903 6.15,13.09 9.4,23.246 9.75,30.461 0.35,36.566 4.66,64.519 12.92,83.859 7.56,17.754 16.44,26.637 26.64,26.637 0.88,0 4.35,-0.489 10.41,-1.449 6.08,-0.969 13.59,-14.465 22.55,-40.485 8.98,-26.019 14.41,-66.019 16.36,-119.988 v -9.235 c 0,-43.429 -6.03,-81.359 -18.07,-113.7925 C 2004.75,55.25 1987.75,31.3828 1965.77,16.0859 1950.3,5.36328 1933.42,0 1915.13,0" /><path
         id="path26"
         style="fill:#9dc5e9;fill-opacity:1;fill-rule:nonzero;stroke:none"
         d="m 2432.26,294.047 c 9.55,7.965 18.44,15.894 27.88,23.086 9.43,7.176 19.77,12.957 31.76,14.687 18.53,2.684 40.51,-9.98 46.91,-27.609 7.09,-19.539 5.98,-39.234 -2.03,-58.215 -12.95,-30.719 -33.6,-55.234 -62.21,-72.461 -20.67,-12.441 -41.93,-23.883 -62.89,-35.836 -2.04,-1.156 -3.41,-1.047 -4.51,1.063 -13.78,26.621 -35.11,47.715 -52.49,71.707 -6.08,8.394 -12.99,16.25 -18.41,25.039 -13.64,22.129 -18.14,45.859 -5.03,69.426 9.84,17.707 26.36,27.113 47.24,26.738 8.74,-0.164 16.47,-4.098 23.67,-8.797 10.93,-7.113 20.45,-15.754 28.08,-26.41 0.64,-0.899 1.43,-1.699 2.03,-2.418" /><path
         id="path28"
         style="fill:#9dc5e9;fill-opacity:1;fill-rule:nonzero;stroke:none"
         d="m 2274.56,141.188 c -42.89,0.335 -82.73,11.402 -118.97,34.535 -10.73,6.855 -19.7,15.547 -26.38,26.699 -10.68,17.836 -0.69,46.254 11.46,54.016 9.95,6.359 20.8,7.101 31.97,5.765 12.92,-1.547 25.27,-5.363 37.02,-10.898 3.33,-1.575 4.67,-0.969 5.71,2.543 2.99,10.156 7.45,19.629 14.29,27.836 13.7,16.425 32.88,20.742 52.46,12.097 17.4,-7.676 26.28,-21.343 28.73,-39.734 2.75,-20.559 -1.72,-40.137 -8.7,-59.215 -5.93,-16.227 -9.94,-32.84 -11.73,-49.988 -0.28,-2.656 -1.22,-3.793 -3.94,-3.692 -3.98,0.149 -7.95,0.036 -11.92,0.036" /></g></g></svg>